<svg height="50pt" viewBox="-105 0 512 512.00075" width="50pt" xmlns="http://www.w3.org/2000/svg"><path d="m218.464844 504.5h-135.402344c-5.523438 0-10-4.476562-10-10v-27.585938h155.402344v27.585938c0 5.523438-4.476563 10-10 10zm0 0" fill="#fff"/><path d="m267.164062 116.691406v42.21875h-232.800781v-42.21875c0-4.941406 4.011719-8.949218 8.949219-8.949218h214.902344c4.9375 0 8.949218 4.007812 8.949218 8.949218zm0 0" fill="#fff"/><path d="m34.363281 130.871094h232.800781v28.039062h-232.800781zm0 0" fill="#d9dfe9"/><path d="m280.59375 182.699219-2.949219 23.339843-8.832031 69.960938-22.71875 180-1.730469 13.691406c-.628906 5-4.878906 8.75-9.917969 8.75h-167.363281c-5.039062 0-9.289062-3.75-9.917969-8.75l-1.730468-13.691406-22.71875-180-8.832032-69.960938-2.949218-23.339843zm0 0" fill="#fff"/><path d="m285.074219 194.042969h-268.621094c-4.945313 0-8.953125-4.011719-8.953125-8.957031v-33.257813c0-4.945313 4.007812-8.957031 8.953125-8.957031h268.621094c4.941406 0 8.953125 4.011718 8.953125 8.957031v33.257813c0 4.945312-4.011719 8.957031-8.953125 8.957031zm0 0" fill="#76ffd9"/><path d="m263.710938 435.253906 17.167968-136c.753906-5.972656-3.902344-11.253906-9.921875-11.253906h-240.386719c-6.019531 0-10.675781 5.28125-9.921874 11.253906l17.167968 136c.632813 4.996094 4.882813 8.746094 9.921875 8.746094h206.050781c5.039063 0 9.289063-3.75 9.921876-8.746094zm0 0" fill="#ffc843"/><path d="m208.15625 317.035156c0 31.699219-25.695312 57.394532-57.394531 57.394532-31.695313 0-57.390625-25.695313-57.390625-57.394532 0-31.695312 25.695312-57.390625 57.390625-57.390625 31.699219 0 57.394531 25.695313 57.394531 57.390625zm0 0" fill="#fff"/><path d="m285.074219 135.375h-10.410157v-18.679688c0-9.085937-7.367187-16.453124-16.453124-16.453124h-214.894532c-9.085937 0-16.453125 7.367187-16.453125 16.453124v18.679688h-10.410156c-9.085937 0-16.453125 7.367188-16.453125 16.453125v33.257813c0 8.835937 7.003906 16.042968 15.746094 16.417968l10.058594 79.683594c-5.238282 1.484375-9.71875 5.332031-11.722657 10.980469-.960937 2.714843-1.171875 5.636719-.8125 8.492187l17.105469 135.53125c1.085938 8.582032 8.324219 15.074219 16.925781 15.289063l2.417969 19.152343c1.039062 8.222657 7.722656 14.53125 15.84375 15.238282v8.628906c0 9.664062 7.835938 17.5 17.5 17.5h135.402344c9.664062 0 17.5-7.835938 17.5-17.5v-8.628906c8.121094-.707032 14.804687-7.015625 15.84375-15.238282l2.417968-19.152343c8.605469-.214844 15.84375-6.707031 16.925782-15.289063l4.921875-38.988281c.519531-4.113281-2.394531-7.863281-6.5-8.382813-4.117188-.519531-7.863281 2.394532-8.382813 6.503907l-4.921875 38.992187c-.15625 1.25-1.21875 2.183594-2.480469 2.183594h-206.050781c-1.257812 0-2.324219-.9375-2.480469-2.183594l-17.167968-136c-.121094-.976562.328125-1.652344.605468-1.96875.277344-.316406.894532-.847656 1.875-.847656h4c4.304688 0 7.636719-3.773438 7.097657-8.046875l-10.800781-85.910156h160.320312c4.105469 0 7.6875-3.164063 7.8125-7.269531.125-4.246094-3.28125-7.730469-7.5-7.730469h-175.046875c-.800781 0-1.453125-.648438-1.453125-1.453125v-33.261719c0-.800781.652344-1.453125 1.453125-1.453125h268.621094c.800781 0 1.453125.652344 1.453125 1.453125v33.261719c0 .804687-.652344 1.453125-1.453125 1.453125h-58.734375c-4.109375 0-7.6875 3.164062-7.8125 7.269531-.128906 4.246094 3.277344 7.730469 7.496094 7.730469h44.636718l-10.847656 85.90625c-.539062 4.273437 2.789062 8.050781 7.097656 8.050781h4.046875c.980469 0 1.597657.53125 1.875.847656.28125.316406.726563.992188.605469 1.96875l-7.886719 62.484375c-.519531 4.109375 2.390625 7.863281 6.5 8.378907.320313.042968.636719.0625.949219.0625 3.722656 0 6.953125-2.773438 7.433594-6.5625l7.828125-62.023438c.359375-2.855469.144531-5.78125-.816407-8.492188-2.007812-5.648437-6.484374-9.492187-11.71875-10.976562l10.058594-79.679688c8.742188-.375 15.746094-7.585937 15.746094-16.417968v-33.261719c-.003906-9.085937-7.371094-16.453125-16.457031-16.453125zm-45.96875 316.125-2.179688 17.253906c-.15625 1.25-1.21875 2.1875-2.480469 2.1875h-108.105468c-4.109375 0-7.6875 3.164063-7.8125 7.269532-.128906 4.246093 3.277344 7.730468 7.496094 7.730468h94.941406v8.558594c0 1.382812-1.121094 2.5-2.5 2.5h-135.402344c-1.382812 0-2.5-1.117188-2.5-2.5v-8.558594h10.625c4.105469 0 7.6875-3.164062 7.8125-7.269531.125-4.246094-3.28125-7.730469-7.5-7.730469h-24.417969c-1.261719 0-2.324219-.9375-2.480469-2.1875l-2.179687-17.253906zm20.558593-316.125h-217.800781v-18.679688c0-.804687.648438-1.453124 1.453125-1.453124h214.894532c.804687 0 1.453124.648437 1.453124 1.453124zm0 0" fill="#474d54"/><g fill="#c2c7d0"><path d="m87.417969 88.757812c1.917969 0 3.839843-.730468 5.304687-2.195312 2.925782-2.929688 2.925782-7.679688 0-10.605469-1.101562-1.101562-1.707031-2.566406-1.707031-4.121093 0-1.558594.605469-3.019532 1.707031-4.121094l36.0625-36.0625c8.121094-8.121094 8.121094-21.335938 0-29.457032-2.929687-2.925781-7.679687-2.925781-10.605468 0-2.929688 2.929688-2.929688 7.679688 0 10.609376 1.101562 1.097656 1.707031 2.5625 1.707031 4.117187 0 1.558594-.605469 3.023437-1.707031 4.121094l-36.0625 36.066406c-8.121094 8.121094-8.121094 21.332031 0 29.453125 1.460937 1.464844 3.382812 2.195312 5.300781 2.195312zm0 0"/><path d="m165.199219 16.925781c0 1.554688-.605469 3.019531-1.707031 4.121094l-36.0625 36.0625c-8.121094 8.121094-8.121094 21.332031 0 29.453125 1.460937 1.464844 3.382812 2.195312 5.300781 2.195312s3.839843-.730468 5.304687-2.195312c2.929688-2.929688 2.929688-7.679688 0-10.605469-1.101562-1.101562-1.707031-2.5625-1.707031-4.121093 0-1.558594.605469-3.019532 1.707031-4.121094l36.0625-36.0625c8.121094-8.121094 8.121094-21.332032 0-29.453125-2.929687-2.929688-7.679687-2.929688-10.605468 0-2.929688 2.925781-2.929688 7.675781 0 10.605469 1.101562 1.101562 1.707031 2.5625 1.707031 4.121093zm0 0"/><path d="m210.511719 16.925781c0 1.554688-.605469 3.019531-1.707031 4.121094l-36.0625 36.0625c-8.121094 8.121094-8.121094 21.332031 0 29.453125 1.464843 1.464844 3.382812 2.195312 5.300781 2.195312 1.921875 0 3.839843-.730468 5.304687-2.195312 2.929688-2.929688 2.929688-7.679688 0-10.605469-1.101562-1.101562-1.707031-2.5625-1.707031-4.121093 0-1.558594.605469-3.019532 1.707031-4.121094l36.0625-36.0625c8.121094-8.121094 8.121094-21.332032 0-29.453125-2.929687-2.929688-7.679687-2.929688-10.605468 0-2.929688 2.925781-2.929688 7.675781 0 10.605469 1.101562 1.101562 1.707031 2.5625 1.707031 4.121093zm0 0"/></g><path d="m130.890625 298.367188c-6.492187 6.492187-10.785156 14.53125-12.089844 22.632812-1.425781 8.871094.945313 17.144531 6.5 22.703125 4.699219 4.695313 10.949219 6.976563 17.679688 6.976563 9.242187 0 19.394531-4.304688 27.65625-12.566407 6.488281-6.488281 10.78125-14.527343 12.085937-22.632812 1.425782-8.867188-.941406-17.144531-6.5-22.699219-11.140625-11.144531-31.054687-8.691406-45.332031 5.585938zm10.605469 10.609374c4.808594-4.8125 10.855468-7.65625 15.972656-8.046874l-24.039062 24.035156c.042968-.585938.109374-1.121094.183593-1.582032.792969-4.941406 3.667969-10.191406 7.882813-14.40625zm18.535156 18.53125c-4.808594 4.804688-10.847656 7.640626-15.960938 8.03125l24.023438-24.023437c-.039062.585937-.105469 1.125-.179688 1.582031-.792968 4.941406-3.667968 10.195313-7.882812 14.410156zm0 0" fill="#474d54"/><path d="m141.136719 399.382812c-4.140625 0-7.5 3.359376-7.5 7.5 0 4.140626 3.359375 7.5 7.5 7.5h19.25c4.144531 0 7.5-3.359374 7.5-7.5 0-4.140624-3.355469-7.5-7.5-7.5zm0 0" fill="#fff"/></svg>